<mxfile host="Electron" modified="2024-04-22T08:22:07.667Z" agent="Mozilla/5.0 (Windows NT 10.0; Win64; x64) AppleWebKit/537.36 (KHTML, like Gecko) draw.io/24.1.0 Chrome/120.0.6099.109 Electron/28.1.0 Safari/537.36" etag="FlSgbtJyL-oooe9n9NhB" version="24.1.0" type="device">
  <diagram name="Страница — 1" id="2_xttF9rPfnjTYkG8hSy">
    <mxGraphModel dx="1105" dy="704" grid="1" gridSize="10" guides="1" tooltips="1" connect="1" arrows="1" fold="1" page="1" pageScale="1" pageWidth="827" pageHeight="1169" math="0" shadow="0">
      <root>
        <mxCell id="0" />
        <mxCell id="1" parent="0" />
        <mxCell id="PnlpgKL5RnprgMk8JDnv-23" style="edgeStyle=orthogonalEdgeStyle;rounded=0;orthogonalLoop=1;jettySize=auto;html=1;exitX=0.5;exitY=1;exitDx=0;exitDy=0;" parent="1" source="PnlpgKL5RnprgMk8JDnv-1" target="PnlpgKL5RnprgMk8JDnv-2" edge="1">
          <mxGeometry relative="1" as="geometry" />
        </mxCell>
        <mxCell id="PnlpgKL5RnprgMk8JDnv-1" value="" style="ellipse;fillColor=strokeColor;html=1;" parent="1" vertex="1">
          <mxGeometry x="430" y="20" width="30" height="30" as="geometry" />
        </mxCell>
        <mxCell id="PnlpgKL5RnprgMk8JDnv-2" value="Заявка на получение кредита" style="swimlane;childLayout=stackLayout;horizontal=1;startSize=50;horizontalStack=0;rounded=1;fontSize=14;fontStyle=0;strokeWidth=2;resizeParent=0;resizeLast=1;shadow=0;dashed=0;align=center;arcSize=4;whiteSpace=wrap;html=1;" parent="1" vertex="1">
          <mxGeometry x="365" y="100" width="160" height="120" as="geometry" />
        </mxCell>
        <mxCell id="PnlpgKL5RnprgMk8JDnv-3" value="do/ внесение данных &lt;br&gt;клиента&lt;br&gt;exit/ заявка заемщика &lt;br&gt;по кредиту" style="align=left;strokeColor=none;fillColor=none;spacingLeft=4;fontSize=12;verticalAlign=top;resizable=0;rotatable=0;part=1;html=1;" parent="PnlpgKL5RnprgMk8JDnv-2" vertex="1">
          <mxGeometry y="50" width="160" height="70" as="geometry" />
        </mxCell>
        <mxCell id="PnlpgKL5RnprgMk8JDnv-6" value="Выбор предложений по кредитным планам" style="swimlane;childLayout=stackLayout;horizontal=1;startSize=50;horizontalStack=0;rounded=1;fontSize=14;fontStyle=0;strokeWidth=2;resizeParent=0;resizeLast=1;shadow=0;dashed=0;align=center;arcSize=4;whiteSpace=wrap;html=1;" parent="1" vertex="1">
          <mxGeometry x="160" y="320" width="160" height="120" as="geometry" />
        </mxCell>
        <mxCell id="PnlpgKL5RnprgMk8JDnv-7" value="do/ выбор сроков и выплат&lt;br&gt;по кредитному плану&lt;br&gt;exit/ итоговый кредитный &lt;br&gt;план" style="align=left;strokeColor=none;fillColor=none;spacingLeft=4;fontSize=12;verticalAlign=top;resizable=0;rotatable=0;part=1;html=1;" parent="PnlpgKL5RnprgMk8JDnv-6" vertex="1">
          <mxGeometry y="50" width="160" height="70" as="geometry" />
        </mxCell>
        <mxCell id="PnlpgKL5RnprgMk8JDnv-8" value="Проверка заемщика" style="swimlane;childLayout=stackLayout;horizontal=1;startSize=50;horizontalStack=0;rounded=1;fontSize=14;fontStyle=0;strokeWidth=2;resizeParent=0;resizeLast=1;shadow=0;dashed=0;align=center;arcSize=4;whiteSpace=wrap;html=1;" parent="1" vertex="1">
          <mxGeometry x="560" y="320" width="160" height="120" as="geometry" />
        </mxCell>
        <mxCell id="PnlpgKL5RnprgMk8JDnv-9" value="do/ проверка заемщика по &lt;br&gt;реестру должников&lt;br&gt;exit/ решение по допуску&lt;br&gt;заемщика к выдаче&amp;nbsp;&lt;span style=&quot;background-color: initial;&quot;&gt;кредита&lt;/span&gt;" style="align=left;strokeColor=none;fillColor=none;spacingLeft=4;fontSize=12;verticalAlign=top;resizable=0;rotatable=0;part=1;html=1;" parent="PnlpgKL5RnprgMk8JDnv-8" vertex="1">
          <mxGeometry y="50" width="160" height="70" as="geometry" />
        </mxCell>
        <mxCell id="PnlpgKL5RnprgMk8JDnv-10" value="Финальное решение по кредиту" style="swimlane;childLayout=stackLayout;horizontal=1;startSize=50;horizontalStack=0;rounded=1;fontSize=14;fontStyle=0;strokeWidth=2;resizeParent=0;resizeLast=1;shadow=0;dashed=0;align=center;arcSize=4;whiteSpace=wrap;html=1;" parent="1" vertex="1">
          <mxGeometry x="365" y="570" width="160" height="120" as="geometry" />
        </mxCell>
        <mxCell id="PnlpgKL5RnprgMk8JDnv-11" value="do/ Подписание договора&lt;br&gt;exit/ Выдача кредита" style="align=left;strokeColor=none;fillColor=none;spacingLeft=4;fontSize=12;verticalAlign=top;resizable=0;rotatable=0;part=1;html=1;" parent="PnlpgKL5RnprgMk8JDnv-10" vertex="1">
          <mxGeometry y="50" width="160" height="70" as="geometry" />
        </mxCell>
        <mxCell id="PnlpgKL5RnprgMk8JDnv-14" value="" style="ellipse;html=1;shape=endState;fillColor=strokeColor;" parent="1" vertex="1">
          <mxGeometry x="430" y="750" width="30" height="30" as="geometry" />
        </mxCell>
        <mxCell id="PnlpgKL5RnprgMk8JDnv-16" style="edgeStyle=orthogonalEdgeStyle;rounded=0;orthogonalLoop=1;jettySize=auto;html=1;exitX=0.5;exitY=1;exitDx=0;exitDy=0;entryX=0.5;entryY=0;entryDx=0;entryDy=0;" parent="1" source="PnlpgKL5RnprgMk8JDnv-3" target="PnlpgKL5RnprgMk8JDnv-8" edge="1">
          <mxGeometry relative="1" as="geometry">
            <mxPoint x="445" y="330" as="targetPoint" />
          </mxGeometry>
        </mxCell>
        <mxCell id="PnlpgKL5RnprgMk8JDnv-18" style="edgeStyle=orthogonalEdgeStyle;rounded=0;orthogonalLoop=1;jettySize=auto;html=1;exitX=0.5;exitY=1;exitDx=0;exitDy=0;entryX=0.5;entryY=0;entryDx=0;entryDy=0;" parent="1" source="PnlpgKL5RnprgMk8JDnv-3" target="PnlpgKL5RnprgMk8JDnv-6" edge="1">
          <mxGeometry relative="1" as="geometry" />
        </mxCell>
        <mxCell id="PnlpgKL5RnprgMk8JDnv-21" style="edgeStyle=orthogonalEdgeStyle;rounded=0;orthogonalLoop=1;jettySize=auto;html=1;exitX=0.5;exitY=1;exitDx=0;exitDy=0;entryX=0.5;entryY=0;entryDx=0;entryDy=0;" parent="1" source="PnlpgKL5RnprgMk8JDnv-7" target="PnlpgKL5RnprgMk8JDnv-10" edge="1">
          <mxGeometry relative="1" as="geometry" />
        </mxCell>
        <mxCell id="PnlpgKL5RnprgMk8JDnv-22" style="edgeStyle=orthogonalEdgeStyle;rounded=0;orthogonalLoop=1;jettySize=auto;html=1;exitX=0.5;exitY=1;exitDx=0;exitDy=0;entryX=0.5;entryY=0;entryDx=0;entryDy=0;" parent="1" source="PnlpgKL5RnprgMk8JDnv-25" target="PnlpgKL5RnprgMk8JDnv-14" edge="1">
          <mxGeometry relative="1" as="geometry" />
        </mxCell>
        <mxCell id="PnlpgKL5RnprgMk8JDnv-24" value="Вход" style="text;html=1;align=center;verticalAlign=middle;resizable=0;points=[];autosize=1;strokeColor=none;fillColor=none;" parent="1" vertex="1">
          <mxGeometry x="420" width="50" height="30" as="geometry" />
        </mxCell>
        <mxCell id="PnlpgKL5RnprgMk8JDnv-26" value="Заявка по кредиту" style="text;html=1;align=center;verticalAlign=middle;resizable=0;points=[];autosize=1;strokeColor=none;fillColor=none;" parent="1" vertex="1">
          <mxGeometry x="475" y="240" width="130" height="30" as="geometry" />
        </mxCell>
        <mxCell id="PnlpgKL5RnprgMk8JDnv-27" value="Заявка по кредиту" style="text;html=1;align=center;verticalAlign=middle;resizable=0;points=[];autosize=1;strokeColor=none;fillColor=none;" parent="1" vertex="1">
          <mxGeometry x="260" y="240" width="130" height="30" as="geometry" />
        </mxCell>
        <mxCell id="PnlpgKL5RnprgMk8JDnv-28" value="" style="edgeStyle=orthogonalEdgeStyle;rounded=0;orthogonalLoop=1;jettySize=auto;html=1;exitX=0.5;exitY=1;exitDx=0;exitDy=0;entryX=0.5;entryY=0;entryDx=0;entryDy=0;endArrow=none;endFill=0;" parent="1" source="PnlpgKL5RnprgMk8JDnv-11" target="PnlpgKL5RnprgMk8JDnv-25" edge="1">
          <mxGeometry relative="1" as="geometry">
            <mxPoint x="445" y="690" as="sourcePoint" />
            <mxPoint x="445" y="750" as="targetPoint" />
          </mxGeometry>
        </mxCell>
        <mxCell id="PnlpgKL5RnprgMk8JDnv-25" value="Выход" style="text;html=1;align=center;verticalAlign=middle;resizable=0;points=[];autosize=1;strokeColor=none;fillColor=none;" parent="1" vertex="1">
          <mxGeometry x="415" y="700" width="60" height="30" as="geometry" />
        </mxCell>
        <mxCell id="PnlpgKL5RnprgMk8JDnv-31" value="Готовый кредитный план" style="text;html=1;align=center;verticalAlign=middle;resizable=0;points=[];autosize=1;strokeColor=none;fillColor=none;" parent="1" vertex="1">
          <mxGeometry x="245" y="480" width="160" height="30" as="geometry" />
        </mxCell>
        <mxCell id="PnlpgKL5RnprgMk8JDnv-33" value="" style="swimlane;whiteSpace=wrap;html=1;" parent="1" vertex="1">
          <mxGeometry x="100" y="920" width="660" height="680" as="geometry">
            <mxRectangle x="160" y="900" width="50" height="40" as="alternateBounds" />
          </mxGeometry>
        </mxCell>
        <mxCell id="fuYQNkAWLuT5a-23ygKj-8" style="edgeStyle=orthogonalEdgeStyle;rounded=0;orthogonalLoop=1;jettySize=auto;html=1;exitX=0.5;exitY=1;exitDx=0;exitDy=0;entryX=0.5;entryY=0;entryDx=0;entryDy=0;" edge="1" parent="PnlpgKL5RnprgMk8JDnv-33" source="fuYQNkAWLuT5a-23ygKj-6" target="PnlpgKL5RnprgMk8JDnv-72">
          <mxGeometry relative="1" as="geometry" />
        </mxCell>
        <mxCell id="fuYQNkAWLuT5a-23ygKj-10" value="Выход" style="edgeLabel;html=1;align=center;verticalAlign=middle;resizable=0;points=[];" vertex="1" connectable="0" parent="fuYQNkAWLuT5a-23ygKj-8">
          <mxGeometry x="-0.0773" relative="1" as="geometry">
            <mxPoint as="offset" />
          </mxGeometry>
        </mxCell>
        <mxCell id="PnlpgKL5RnprgMk8JDnv-36" value="&lt;b&gt;Заемщик&lt;/b&gt;" style="text;html=1;align=center;verticalAlign=middle;resizable=0;points=[];autosize=1;strokeColor=none;fillColor=none;" parent="PnlpgKL5RnprgMk8JDnv-33" vertex="1">
          <mxGeometry x="35" width="80" height="30" as="geometry" />
        </mxCell>
        <mxCell id="PnlpgKL5RnprgMk8JDnv-37" value="&lt;b&gt;Банк&lt;/b&gt;" style="text;html=1;align=center;verticalAlign=middle;resizable=0;points=[];autosize=1;strokeColor=none;fillColor=none;" parent="PnlpgKL5RnprgMk8JDnv-33" vertex="1">
          <mxGeometry x="500" width="50" height="30" as="geometry" />
        </mxCell>
        <mxCell id="PnlpgKL5RnprgMk8JDnv-40" style="edgeStyle=orthogonalEdgeStyle;rounded=0;orthogonalLoop=1;jettySize=auto;html=1;exitX=0.5;exitY=1;exitDx=0;exitDy=0;" parent="PnlpgKL5RnprgMk8JDnv-33" source="PnlpgKL5RnprgMk8JDnv-41" edge="1">
          <mxGeometry relative="1" as="geometry">
            <mxPoint x="75" y="130" as="targetPoint" />
          </mxGeometry>
        </mxCell>
        <mxCell id="PnlpgKL5RnprgMk8JDnv-41" value="" style="ellipse;fillColor=strokeColor;html=1;" parent="PnlpgKL5RnprgMk8JDnv-33" vertex="1">
          <mxGeometry x="60" y="50" width="30" height="30" as="geometry" />
        </mxCell>
        <mxCell id="PnlpgKL5RnprgMk8JDnv-42" value="Вход" style="text;html=1;align=center;verticalAlign=middle;resizable=0;points=[];autosize=1;strokeColor=none;fillColor=none;" parent="PnlpgKL5RnprgMk8JDnv-33" vertex="1">
          <mxGeometry x="50" y="30" width="50" height="30" as="geometry" />
        </mxCell>
        <mxCell id="PnlpgKL5RnprgMk8JDnv-45" style="edgeStyle=orthogonalEdgeStyle;rounded=0;orthogonalLoop=1;jettySize=auto;html=1;exitX=1;exitY=0.5;exitDx=0;exitDy=0;entryX=0;entryY=0.5;entryDx=0;entryDy=0;" parent="PnlpgKL5RnprgMk8JDnv-33" source="PnlpgKL5RnprgMk8JDnv-43" target="PnlpgKL5RnprgMk8JDnv-44" edge="1">
          <mxGeometry relative="1" as="geometry" />
        </mxCell>
        <mxCell id="PnlpgKL5RnprgMk8JDnv-43" value="Заявка на получение кредита" style="rounded=1;whiteSpace=wrap;html=1;" parent="PnlpgKL5RnprgMk8JDnv-33" vertex="1">
          <mxGeometry x="15" y="130" width="120" height="30" as="geometry" />
        </mxCell>
        <mxCell id="PnlpgKL5RnprgMk8JDnv-51" style="edgeStyle=orthogonalEdgeStyle;rounded=0;orthogonalLoop=1;jettySize=auto;html=1;exitX=0.5;exitY=1;exitDx=0;exitDy=0;entryX=-0.406;entryY=0.502;entryDx=0;entryDy=0;entryPerimeter=0;" parent="PnlpgKL5RnprgMk8JDnv-33" source="PnlpgKL5RnprgMk8JDnv-44" target="PnlpgKL5RnprgMk8JDnv-49" edge="1">
          <mxGeometry relative="1" as="geometry">
            <mxPoint x="314" y="220" as="targetPoint" />
          </mxGeometry>
        </mxCell>
        <mxCell id="PnlpgKL5RnprgMk8JDnv-44" value="Выбор предложений по кредитному плану" style="rounded=1;whiteSpace=wrap;html=1;" parent="PnlpgKL5RnprgMk8JDnv-33" vertex="1">
          <mxGeometry x="254" y="127.5" width="120" height="35" as="geometry" />
        </mxCell>
        <mxCell id="PnlpgKL5RnprgMk8JDnv-49" value="" style="html=1;points=[];perimeter=orthogonalPerimeter;fillColor=strokeColor;rotation=90;" parent="PnlpgKL5RnprgMk8JDnv-33" vertex="1">
          <mxGeometry x="311.5" y="162.5" width="5" height="80" as="geometry" />
        </mxCell>
        <mxCell id="PnlpgKL5RnprgMk8JDnv-52" value="Проверка заемщика по реестру должников" style="rounded=1;whiteSpace=wrap;html=1;" parent="PnlpgKL5RnprgMk8JDnv-33" vertex="1">
          <mxGeometry x="460" y="250" width="120" height="45" as="geometry" />
        </mxCell>
        <mxCell id="fuYQNkAWLuT5a-23ygKj-12" style="edgeStyle=orthogonalEdgeStyle;rounded=0;orthogonalLoop=1;jettySize=auto;html=1;exitX=0.5;exitY=1;exitDx=0;exitDy=0;entryX=1;entryY=0.5;entryDx=0;entryDy=0;" edge="1" parent="PnlpgKL5RnprgMk8JDnv-33" source="PnlpgKL5RnprgMk8JDnv-53" target="fuYQNkAWLuT5a-23ygKj-6">
          <mxGeometry relative="1" as="geometry" />
        </mxCell>
        <mxCell id="PnlpgKL5RnprgMk8JDnv-53" value="Отказ в выдаче кредита" style="rounded=1;whiteSpace=wrap;html=1;" parent="PnlpgKL5RnprgMk8JDnv-33" vertex="1">
          <mxGeometry x="530" y="390" width="120" height="35" as="geometry" />
        </mxCell>
        <mxCell id="PnlpgKL5RnprgMk8JDnv-54" style="edgeStyle=orthogonalEdgeStyle;rounded=0;orthogonalLoop=1;jettySize=auto;html=1;entryX=0.5;entryY=0;entryDx=0;entryDy=0;" parent="PnlpgKL5RnprgMk8JDnv-33" target="PnlpgKL5RnprgMk8JDnv-52" edge="1">
          <mxGeometry relative="1" as="geometry">
            <mxPoint x="340" y="280" as="targetPoint" />
            <mxPoint x="340" y="206" as="sourcePoint" />
            <Array as="points">
              <mxPoint x="340" y="206" />
              <mxPoint x="340" y="230" />
              <mxPoint x="555" y="230" />
            </Array>
          </mxGeometry>
        </mxCell>
        <mxCell id="PnlpgKL5RnprgMk8JDnv-75" style="edgeStyle=orthogonalEdgeStyle;rounded=0;orthogonalLoop=1;jettySize=auto;html=1;exitX=0.5;exitY=1;exitDx=0;exitDy=0;entryX=0.5;entryY=0;entryDx=0;entryDy=0;endArrow=classic;endFill=1;" parent="PnlpgKL5RnprgMk8JDnv-33" source="PnlpgKL5RnprgMk8JDnv-58" target="fuYQNkAWLuT5a-23ygKj-6" edge="1">
          <mxGeometry relative="1" as="geometry">
            <mxPoint x="75" y="580" as="targetPoint" />
          </mxGeometry>
        </mxCell>
        <mxCell id="PnlpgKL5RnprgMk8JDnv-58" value="Подписание договора" style="rounded=1;whiteSpace=wrap;html=1;" parent="PnlpgKL5RnprgMk8JDnv-33" vertex="1">
          <mxGeometry x="15" y="530" width="120" height="30" as="geometry" />
        </mxCell>
        <mxCell id="PnlpgKL5RnprgMk8JDnv-60" value="Подтверждение кредитных условий" style="rounded=1;whiteSpace=wrap;html=1;" parent="PnlpgKL5RnprgMk8JDnv-33" vertex="1">
          <mxGeometry x="260" y="320" width="120" height="35" as="geometry" />
        </mxCell>
        <mxCell id="PnlpgKL5RnprgMk8JDnv-61" style="edgeStyle=orthogonalEdgeStyle;rounded=0;orthogonalLoop=1;jettySize=auto;html=1;exitX=1.067;exitY=0.805;exitDx=0;exitDy=0;entryX=0.25;entryY=0;entryDx=0;entryDy=0;exitPerimeter=0;" parent="PnlpgKL5RnprgMk8JDnv-33" source="PnlpgKL5RnprgMk8JDnv-49" target="PnlpgKL5RnprgMk8JDnv-60" edge="1">
          <mxGeometry relative="1" as="geometry">
            <mxPoint x="300" y="242.5" as="targetPoint" />
            <mxPoint x="300" y="207.5" as="sourcePoint" />
            <Array as="points">
              <mxPoint x="290" y="208" />
              <mxPoint x="290" y="208" />
            </Array>
          </mxGeometry>
        </mxCell>
        <mxCell id="PnlpgKL5RnprgMk8JDnv-62" value="" style="html=1;points=[];perimeter=orthogonalPerimeter;fillColor=strokeColor;rotation=90;" parent="PnlpgKL5RnprgMk8JDnv-33" vertex="1">
          <mxGeometry x="72.5" y="460" width="5" height="80" as="geometry" />
        </mxCell>
        <mxCell id="PnlpgKL5RnprgMk8JDnv-63" style="edgeStyle=orthogonalEdgeStyle;rounded=0;orthogonalLoop=1;jettySize=auto;html=1;exitX=0.25;exitY=1;exitDx=0;exitDy=0;entryX=0.097;entryY=0.814;entryDx=0;entryDy=0;entryPerimeter=0;" parent="PnlpgKL5RnprgMk8JDnv-33" source="PnlpgKL5RnprgMk8JDnv-60" target="PnlpgKL5RnprgMk8JDnv-62" edge="1">
          <mxGeometry relative="1" as="geometry">
            <Array as="points">
              <mxPoint x="290" y="370" />
              <mxPoint x="50" y="370" />
            </Array>
          </mxGeometry>
        </mxCell>
        <mxCell id="PnlpgKL5RnprgMk8JDnv-65" style="edgeStyle=orthogonalEdgeStyle;rounded=0;orthogonalLoop=1;jettySize=auto;html=1;entryX=-0.406;entryY=0.502;entryDx=0;entryDy=0;entryPerimeter=0;" parent="PnlpgKL5RnprgMk8JDnv-33" edge="1">
          <mxGeometry relative="1" as="geometry">
            <mxPoint x="74.58000000000001" y="530" as="targetPoint" />
            <mxPoint x="75" y="500" as="sourcePoint" />
          </mxGeometry>
        </mxCell>
        <mxCell id="PnlpgKL5RnprgMk8JDnv-72" value="" style="ellipse;html=1;shape=endState;fillColor=strokeColor;" parent="PnlpgKL5RnprgMk8JDnv-33" vertex="1">
          <mxGeometry x="60" y="650" width="30" height="30" as="geometry" />
        </mxCell>
        <mxCell id="PnlpgKL5RnprgMk8JDnv-35" value="" style="endArrow=none;html=1;rounded=0;entryX=0.75;entryY=0;entryDx=0;entryDy=0;" parent="PnlpgKL5RnprgMk8JDnv-33" edge="1">
          <mxGeometry width="50" height="50" relative="1" as="geometry">
            <mxPoint x="390" y="680" as="sourcePoint" />
            <mxPoint x="390" as="targetPoint" />
          </mxGeometry>
        </mxCell>
        <mxCell id="uJxD2sSpBiyoJ9LDhe9o-10" value="Финальное решение по кредиту" style="rounded=1;whiteSpace=wrap;html=1;" parent="PnlpgKL5RnprgMk8JDnv-33" vertex="1">
          <mxGeometry x="400" y="390" width="120" height="35" as="geometry" />
        </mxCell>
        <mxCell id="uJxD2sSpBiyoJ9LDhe9o-13" value="&lt;b&gt;Менеджер&lt;/b&gt;" style="text;html=1;align=center;verticalAlign=middle;resizable=0;points=[];autosize=1;strokeColor=none;fillColor=none;" parent="PnlpgKL5RnprgMk8JDnv-33" vertex="1">
          <mxGeometry x="231.5" width="80" height="30" as="geometry" />
        </mxCell>
        <mxCell id="uJxD2sSpBiyoJ9LDhe9o-15" style="edgeStyle=orthogonalEdgeStyle;rounded=0;orthogonalLoop=1;jettySize=auto;html=1;exitX=0.5;exitY=1;exitDx=0;exitDy=0;entryX=0.34;entryY=0.243;entryDx=0;entryDy=0;entryPerimeter=0;" parent="PnlpgKL5RnprgMk8JDnv-33" source="uJxD2sSpBiyoJ9LDhe9o-10" target="PnlpgKL5RnprgMk8JDnv-62" edge="1">
          <mxGeometry relative="1" as="geometry" />
        </mxCell>
        <mxCell id="uJxD2sSpBiyoJ9LDhe9o-18" style="edgeStyle=orthogonalEdgeStyle;rounded=0;orthogonalLoop=1;jettySize=auto;html=1;exitX=0.5;exitY=1;exitDx=0;exitDy=0;entryX=-0.133;entryY=0.481;entryDx=0;entryDy=0;entryPerimeter=0;" parent="PnlpgKL5RnprgMk8JDnv-33" source="PnlpgKL5RnprgMk8JDnv-52" edge="1">
          <mxGeometry relative="1" as="geometry">
            <mxPoint x="519.02" y="326.83500000000004" as="targetPoint" />
          </mxGeometry>
        </mxCell>
        <mxCell id="fuYQNkAWLuT5a-23ygKj-4" style="edgeStyle=orthogonalEdgeStyle;rounded=0;orthogonalLoop=1;jettySize=auto;html=1;exitX=0.5;exitY=1;exitDx=0;exitDy=0;entryX=0.5;entryY=0;entryDx=0;entryDy=0;" edge="1" parent="PnlpgKL5RnprgMk8JDnv-33" source="fuYQNkAWLuT5a-23ygKj-2" target="uJxD2sSpBiyoJ9LDhe9o-10">
          <mxGeometry relative="1" as="geometry">
            <Array as="points">
              <mxPoint x="520" y="370" />
              <mxPoint x="460" y="370" />
            </Array>
          </mxGeometry>
        </mxCell>
        <mxCell id="fuYQNkAWLuT5a-23ygKj-5" style="edgeStyle=orthogonalEdgeStyle;rounded=0;orthogonalLoop=1;jettySize=auto;html=1;exitX=0.5;exitY=1;exitDx=0;exitDy=0;entryX=0.5;entryY=0;entryDx=0;entryDy=0;" edge="1" parent="PnlpgKL5RnprgMk8JDnv-33" source="fuYQNkAWLuT5a-23ygKj-2" target="PnlpgKL5RnprgMk8JDnv-53">
          <mxGeometry relative="1" as="geometry">
            <Array as="points">
              <mxPoint x="520" y="370" />
              <mxPoint x="590" y="370" />
            </Array>
          </mxGeometry>
        </mxCell>
        <mxCell id="fuYQNkAWLuT5a-23ygKj-2" value="" style="rhombus;" vertex="1" parent="PnlpgKL5RnprgMk8JDnv-33">
          <mxGeometry x="497.5" y="325" width="45" height="30" as="geometry" />
        </mxCell>
        <mxCell id="fuYQNkAWLuT5a-23ygKj-6" value="" style="rhombus;" vertex="1" parent="PnlpgKL5RnprgMk8JDnv-33">
          <mxGeometry x="52.5" y="590" width="45" height="30" as="geometry" />
        </mxCell>
        <mxCell id="PnlpgKL5RnprgMk8JDnv-34" value="" style="endArrow=none;html=1;rounded=0;entryX=0.25;entryY=0;entryDx=0;entryDy=0;exitX=0.25;exitY=1;exitDx=0;exitDy=0;" parent="1" source="PnlpgKL5RnprgMk8JDnv-33" target="PnlpgKL5RnprgMk8JDnv-33" edge="1">
          <mxGeometry width="50" height="50" relative="1" as="geometry">
            <mxPoint x="290" y="1230" as="sourcePoint" />
            <mxPoint x="340" y="1180" as="targetPoint" />
            <Array as="points" />
          </mxGeometry>
        </mxCell>
        <mxCell id="uJxD2sSpBiyoJ9LDhe9o-2" value="Отказ по выдаче кредита" style="swimlane;childLayout=stackLayout;horizontal=1;startSize=50;horizontalStack=0;rounded=1;fontSize=14;fontStyle=0;strokeWidth=2;resizeParent=0;resizeLast=1;shadow=0;dashed=0;align=center;arcSize=4;whiteSpace=wrap;html=1;" parent="1" vertex="1">
          <mxGeometry x="650" y="570" width="160" height="120" as="geometry" />
        </mxCell>
        <mxCell id="uJxD2sSpBiyoJ9LDhe9o-3" value="entry/ Данные&amp;nbsp;&lt;div&gt;непрошедшие проверку&lt;br&gt;exit/ Отказ в выдаче&amp;nbsp;&lt;/div&gt;&lt;div&gt;кредита&lt;/div&gt;" style="align=left;strokeColor=none;fillColor=none;spacingLeft=4;fontSize=12;verticalAlign=top;resizable=0;rotatable=0;part=1;html=1;" parent="uJxD2sSpBiyoJ9LDhe9o-2" vertex="1">
          <mxGeometry y="50" width="160" height="70" as="geometry" />
        </mxCell>
        <mxCell id="uJxD2sSpBiyoJ9LDhe9o-4" style="edgeStyle=orthogonalEdgeStyle;rounded=0;orthogonalLoop=1;jettySize=auto;html=1;exitX=0.5;exitY=1;exitDx=0;exitDy=0;entryX=0.5;entryY=0;entryDx=0;entryDy=0;" parent="1" source="PnlpgKL5RnprgMk8JDnv-9" target="PnlpgKL5RnprgMk8JDnv-10" edge="1">
          <mxGeometry relative="1" as="geometry" />
        </mxCell>
        <mxCell id="uJxD2sSpBiyoJ9LDhe9o-6" style="edgeStyle=orthogonalEdgeStyle;rounded=0;orthogonalLoop=1;jettySize=auto;html=1;exitX=0.5;exitY=1;exitDx=0;exitDy=0;entryX=0.5;entryY=0;entryDx=0;entryDy=0;" parent="1" source="PnlpgKL5RnprgMk8JDnv-9" target="uJxD2sSpBiyoJ9LDhe9o-2" edge="1">
          <mxGeometry relative="1" as="geometry" />
        </mxCell>
        <mxCell id="uJxD2sSpBiyoJ9LDhe9o-7" value="Заемщик прошел проверку" style="text;html=1;align=center;verticalAlign=middle;resizable=0;points=[];autosize=1;strokeColor=none;fillColor=none;" parent="1" vertex="1">
          <mxGeometry x="475" y="480" width="170" height="30" as="geometry" />
        </mxCell>
        <mxCell id="uJxD2sSpBiyoJ9LDhe9o-8" value="Заемщик не прошел проверку" style="text;html=1;align=center;verticalAlign=middle;resizable=0;points=[];autosize=1;strokeColor=none;fillColor=none;" parent="1" vertex="1">
          <mxGeometry x="637" y="480" width="190" height="30" as="geometry" />
        </mxCell>
        <mxCell id="uJxD2sSpBiyoJ9LDhe9o-9" style="edgeStyle=orthogonalEdgeStyle;rounded=0;orthogonalLoop=1;jettySize=auto;html=1;exitX=0.5;exitY=1;exitDx=0;exitDy=0;entryX=0.5;entryY=0;entryDx=0;entryDy=0;" parent="1" source="uJxD2sSpBiyoJ9LDhe9o-3" target="PnlpgKL5RnprgMk8JDnv-14" edge="1">
          <mxGeometry relative="1" as="geometry">
            <Array as="points">
              <mxPoint x="730" y="720" />
              <mxPoint x="445" y="720" />
            </Array>
          </mxGeometry>
        </mxCell>
      </root>
    </mxGraphModel>
  </diagram>
</mxfile>
